<svg width="186" height="253" viewBox="0 0 186 253" fill="none" xmlns="http://www.w3.org/2000/svg">
<path d="M27.1121 239.91L27.1232 239.919C36.2786 246.851 48.5602 250.205 63.7535 250.205C75.1318 250.205 84.548 247.47 91.8215 241.821C99.0551 236.298 104.659 229.127 108.637 220.355C112.221 212.694 115.107 204.695 117.296 196.361L118.761 197.613C117.754 201.852 116.851 205.825 116.052 209.534L116.045 209.563L116.04 209.592C115.275 213.734 114.888 217.681 114.888 221.431C114.888 231.909 117.631 239.722 123.741 244.094C129.544 248.247 137.403 250.205 147.091 250.205C150.946 250.205 155.886 249.768 161.881 248.915C168.005 248.258 173.884 246.837 179.51 244.651L180.552 244.246L180.753 243.146C182.015 236.239 182.892 228.075 183.393 218.668C183.892 209.269 184.017 199.87 183.768 190.471C183.642 181.065 183.017 173.194 181.872 166.887L181.713 166.014L180.96 165.545C178.733 164.161 176.333 161.1 173.9 155.909C171.718 150.78 170.531 141.902 170.531 128.994C170.531 122.253 170.839 114.653 171.458 106.19C172.082 97.6538 172.457 88.9068 172.582 79.9492C172.833 70.6973 172.204 62.0603 170.685 54.0455C167.653 37.2057 161.483 24.3203 151.991 15.6458C142.429 6.69345 128.821 2.36435 111.481 2.36435C97.9686 2.36435 87.2223 5.85668 79.5334 13.1093C74.8218 17.5536 71.5161 24.0207 69.4992 32.3668C69.7674 26.2833 70.6726 20.1948 72.2175 14.0994L72.8181 11.7296L70.3764 11.6104C66.0173 11.3974 61.0382 11.1846 55.4398 10.9719C49.8576 10.7598 44.1517 10.5478 38.3221 10.3357C32.5985 9.91064 27.1202 9.59148 21.8875 9.37845C16.7745 9.16526 12.3953 9.05801 8.75452 9.05801H6.9805L6.76881 10.8194C3.02203 41.9941 2.71137 74.2241 5.83107 107.506L5.98136 109.109L7.5799 109.305C19.8873 110.808 32.2573 111.13 44.6883 110.271C56.9918 109.421 69.4817 108.571 82.1581 107.721L84.0244 107.596V105.726V99.1195H90.2784V112.045L52.7286 112.651C52.7271 112.651 52.7256 112.651 52.7242 112.651C35.3168 112.871 22.3189 119.04 14.1694 131.399C6.18662 143.507 2.28003 159.118 2.28003 178.081C2.28003 190.61 4.17582 202.311 7.98599 213.168C11.8377 224.143 18.215 233.076 27.1121 239.91ZM90.2784 136.732V152.813H84.0244V136.732H90.2784Z" fill="#F1D7A0" stroke="#320050" stroke-width="4"/>
</svg>
