<svg width="162" height="260" viewBox="0 0 162 260" fill="none" xmlns="http://www.w3.org/2000/svg">
<path d="M17.2646 37.533L29.3061 8.18176L116.607 19.4707L112.092 46.5641L124.133 57.1005H139.938L147.464 75.1628L127.896 89.4621L112.092 78.1732L106.823 87.2043L98.5449 108.277H52.6366C50.8303 108.277 44.8598 113.796 42.1002 116.556C41.3476 123.58 40.294 138.23 42.1002 140.639C43.9065 143.047 58.9082 141.642 66.1833 140.639C84.7473 139.635 122.327 137.628 124.133 137.628C125.939 137.628 129.903 144.652 131.659 148.165L124.133 164.722C116.105 165.474 99.7491 166.979 98.5449 166.979C97.0397 166.979 74.4618 167.732 72.2041 166.979C70.3978 166.377 49.8771 170.742 39.8424 173L34.5743 212.135C49.6262 212.386 80.3321 212.737 82.7404 212.135C85.7508 211.383 125.638 204.609 127.896 204.609H147.464L152.732 230.95C147.213 233.208 135.573 237.723 133.164 237.723C130.756 237.723 112.593 241.236 103.813 242.992L94.0293 252.775L34.5743 248.26L17.2646 239.981C15.5085 228.692 11.5449 205.813 9.73863 204.609C7.9324 203.405 5.47392 167.481 4.47046 149.67L11.9964 75.1628L17.2646 37.533Z" fill="#F1D7A0"/>
<mask id="path-2-outside-1_104_7" maskUnits="userSpaceOnUse" x="0.470459" y="0.364349" width="162" height="260" fill="black">
<rect fill="white" x="0.470459" y="0.364349" width="162" height="260"/>
<path d="M113.721 58.0308C117.017 55.915 119.926 54.0876 122.446 52.5488C125.161 50.8176 127.778 49.2788 130.299 47.9323C135.34 45.047 139.12 46.2011 141.641 51.3947C143.774 55.4341 145.519 59.4735 146.876 63.5129C148.233 67.5523 149.009 71.8803 149.202 76.4967C149.784 83.9985 146.682 89.0959 139.896 91.7888C125.742 97.367 116.727 92.462 112.849 77.0738C112.461 75.535 112.17 73.9961 111.976 72.4573C111.782 70.7261 110.91 68.995 109.359 67.2638C108.002 69.3797 107.226 71.4956 107.032 73.6114C107.032 75.535 107.032 77.5547 107.032 79.6705V101.31C107.42 105.734 105.384 108.043 100.925 108.235C93.5572 108.812 86.1896 109.389 78.8219 109.966C71.4542 110.351 64.0866 110.351 56.7189 109.966C53.0351 109.581 50.3207 110.062 48.5757 111.409C47.0246 112.755 46.1522 115.352 45.9583 119.199C45.9583 124.97 46.1522 129.105 46.5399 131.606C46.9277 133.914 48.2849 135.453 50.6115 136.222C52.9382 136.992 57.0098 137.857 62.8263 138.819C72.5206 140.358 82.021 140.55 91.3275 139.396C100.634 138.05 109.844 135.934 118.956 133.049C123.997 131.51 127.099 131.221 128.263 132.183C129.62 133.145 130.589 136.222 131.171 141.416C131.559 143.916 131.753 146.513 131.753 149.206C131.947 151.707 132.14 154.207 132.334 156.708C132.722 160.747 131.85 163.921 129.717 166.229C127.584 168.538 124.482 169.596 120.41 169.403C117.114 169.019 113.721 168.922 110.231 169.115C106.935 169.115 103.639 168.441 100.343 167.095C97.241 165.749 94.3327 165.749 91.6183 167.095C88.9039 168.249 86.0926 169.019 83.1843 169.403C77.7555 169.98 72.3267 170.557 66.8979 171.134C61.4691 171.519 55.9434 171.711 50.3207 171.711C47.4124 171.711 45.0858 172.385 43.3408 173.731C41.7897 174.885 40.9172 177.194 40.7234 180.656C40.5295 185.465 40.4325 190.37 40.4325 195.371C40.6264 200.18 40.7234 205.085 40.7234 210.086C40.7234 211.625 41.0142 212.586 41.5958 212.971C42.3714 213.356 43.4378 213.644 44.795 213.837C50.4176 214.799 56.0403 215.183 61.663 214.991C67.2857 214.606 72.9084 214.221 78.5311 213.837C84.5415 213.452 90.455 212.971 96.2716 212.394C102.282 211.625 108.293 210.278 114.303 208.355C118.181 206.816 121.961 205.085 125.645 203.161C129.523 201.238 133.498 199.699 137.569 198.545C142.61 197.006 146.197 196.717 148.33 197.679C150.657 198.449 152.595 201.334 154.146 206.335C155.116 209.413 155.891 212.586 156.473 215.856C157.055 218.934 157.539 222.108 157.927 225.378C158.315 228.263 157.152 230.956 154.437 233.457C151.723 235.765 148.427 237.208 144.549 237.785C139.896 238.362 135.243 238.939 130.589 239.516C125.936 239.901 121.283 240.285 116.63 240.67C113.527 241.055 110.619 241.728 107.905 242.69C105.19 243.651 103.251 246.056 102.088 249.903C101.313 252.404 99.6646 254.039 97.1441 254.808C94.8175 255.577 92.4908 255.866 90.1642 255.674C79.5005 253.75 68.6429 252.596 57.5914 252.211C46.5399 251.827 35.5854 251.442 24.7278 251.057C20.6562 250.865 17.8448 249.807 16.2938 247.883C14.7427 245.96 13.7732 243.363 13.3855 240.093C12.2222 230.86 11.1558 221.627 10.1864 212.394C9.21693 203.161 8.15056 193.928 6.98724 184.695C4.07896 160.074 3.69119 135.741 5.82393 111.697C7.95667 87.4608 10.3802 63.2244 13.0946 38.9879C13.6763 33.602 14.8396 28.4085 16.5846 23.4073C18.5234 18.4061 19.7837 13.3088 20.3654 8.11524C20.947 5.61464 22.595 4.36435 25.3094 4.36435C33.6465 4.5567 41.8867 4.74905 50.0299 4.9414C58.1731 5.13376 66.2193 6.28788 74.1686 8.40376C77.6586 9.17318 81.2455 9.75023 84.9293 10.1349C88.6131 10.5196 92.2969 10.9044 95.9808 11.2891C96.3686 11.4814 96.8533 11.5776 97.4349 11.5776C98.0166 11.5776 98.5013 11.5776 98.8891 11.5776C105.675 12.1546 110.522 13.1164 113.43 14.4629C116.533 15.8093 118.181 18.1176 118.375 21.3876C118.762 24.4652 118.084 29.1779 116.339 35.5255C115.369 38.9879 114.691 42.5464 114.303 46.2011C113.915 49.8558 113.721 53.7991 113.721 58.0308ZM24.1461 9.55788C28.6055 9.75023 32.9679 9.94258 37.2334 10.1349C41.4989 10.3273 45.7644 10.712 50.0299 11.2891C59.1425 12.6355 68.2551 14.1744 77.3678 15.9055C86.4804 17.4444 95.593 18.887 104.706 20.2335C106.257 20.4258 108.099 20.9067 110.231 21.6761C112.364 22.4455 113.624 21.6761 114.012 19.3679C114.4 17.8291 113.43 16.8673 111.104 16.4826C108.777 15.9055 106.741 15.5208 104.996 15.3285C92.5878 13.7896 80.276 12.0585 68.0612 10.1349C56.0403 8.01906 43.7286 6.76876 31.126 6.38405C29.9627 6.38405 28.7024 6.28787 27.3452 6.09552C26.1819 5.90317 25.1156 7.05729 24.1461 9.55788ZM55.8464 17.6367C55.8464 17.252 55.8464 16.8673 55.8464 16.4826C56.0403 15.9055 56.1373 15.5208 56.1373 15.3285C54.7801 15.1361 53.3259 14.9438 51.7748 14.7514C50.4176 14.5591 49.0604 14.3667 47.7032 14.1743C41.1111 13.4049 36.264 13.2126 33.1618 13.5973C30.2535 13.7896 28.1208 15.2323 26.7636 17.9252C25.6003 20.4258 24.1461 24.9461 22.4012 31.4861C20.4623 38.6032 19.3959 43.7005 19.202 46.7782C19.202 49.8558 20.6562 51.6832 23.5645 52.2603C26.6666 52.645 31.9985 52.5488 39.56 51.9717C46.346 51.3947 53.0351 50.8176 59.6272 50.2405C66.4132 49.4711 73.1023 50.0482 79.6944 51.9717C83.5721 53.3182 87.5467 54.4723 91.6183 55.4341C95.6899 56.3958 99.7615 57.3576 103.833 58.3194C105.966 58.7041 107.517 58.6079 108.486 58.0308C109.65 57.4538 110.328 56.0111 110.522 53.7029C110.91 49.8558 111.395 46.0088 111.976 42.1617C112.558 38.1223 113.334 34.2752 114.303 30.6205C114.885 27.9276 114.788 26.1964 114.012 25.427C113.237 24.6576 111.686 24.1767 109.359 23.9844C100.44 23.0226 91.5214 21.9647 82.6027 20.8105C73.6839 19.6564 64.7652 18.5985 55.8464 17.6367ZM144.549 71.0147C144.355 66.5905 143.483 62.8397 141.932 59.762C140.381 56.6844 138.733 53.7991 136.988 51.1061C136.212 49.7597 135.146 49.5673 133.788 50.5291C133.207 50.9138 132.916 51.3947 132.916 51.9717C133.11 52.5488 133.304 53.0297 133.498 53.4144C134.661 56.2997 136.115 59.185 137.86 62.0702C139.799 64.7632 142.029 67.7447 144.549 71.0147ZM84.9293 58.3194C80.276 56.7805 75.6228 55.4341 70.9695 54.2799C66.5101 52.9335 61.7599 53.1258 56.7189 54.857C61.3722 55.4341 66.0254 56.0111 70.6787 56.5882C75.5258 57.1653 80.276 57.7423 84.9293 58.3194ZM10.4772 91.2117C10.2833 97.1747 9.79859 103.138 9.02304 109.101C8.2475 114.871 7.76279 120.738 7.5689 126.701C7.18113 144.782 7.76279 162.767 9.31387 180.656C11.0588 198.352 13.1916 216.049 15.7121 233.745C16.4876 238.362 16.9724 241.536 17.1662 243.267C17.554 245.19 18.7173 246.248 20.6562 246.441C22.595 246.633 26.1819 246.633 31.4168 246.441C32.3863 246.248 33.2588 246.152 34.0343 246.152C34.8098 246.344 35.5854 246.537 36.3609 246.729C45.0858 247.691 53.8106 248.268 62.5355 248.46C71.4542 248.845 80.373 249.807 89.2917 251.346C96.2716 252.5 99.8585 249.614 100.052 242.69C100.052 239.997 100.052 237.4 100.052 234.899C100.246 232.206 100.44 229.514 100.634 226.821C101.022 222.204 100.052 219.415 97.7257 218.453C95.593 217.299 92.8786 216.914 89.5826 217.299C81.8271 218.069 74.1686 218.453 66.6071 218.453C59.0456 218.261 51.3871 217.972 43.6316 217.588C39.3662 217.203 36.167 216.241 34.0343 214.702C32.0954 212.971 30.8352 209.99 30.2535 205.758C29.0902 197.871 28.8963 190.177 29.6719 182.676C30.2535 178.829 30.7382 176.136 31.126 174.597C31.5138 173.058 32.4832 172 34.0343 171.423C35.7793 170.654 38.5906 169.98 42.4683 169.403C49.0604 168.249 55.6526 167.672 62.2447 167.672C68.8368 167.48 75.4289 166.614 82.021 165.075C83.1843 164.691 84.3476 164.498 85.5109 164.498C86.8681 164.306 87.6437 163.536 87.8376 162.19C88.6131 159.497 89.0009 156.804 89.0009 154.111C89.0009 151.418 88.5162 148.821 87.5467 146.321C86.7712 144.397 85.2201 143.628 82.8935 144.013C80.7607 144.205 78.7249 144.301 76.7861 144.301C71.1634 144.494 65.5407 145.359 59.918 146.898C54.2954 148.437 48.5757 149.11 42.7592 148.918C37.3304 148.918 34.8098 146.225 35.1976 140.839C35.3915 136.607 35.7793 132.471 36.3609 128.432C37.1365 124.393 37.912 120.353 38.6876 116.314C39.657 111.697 41.4989 108.908 44.2133 107.946C46.9277 106.792 50.2238 106.311 54.1015 106.504C61.0814 106.696 68.0612 106.6 75.0411 106.215C82.021 105.831 89.0978 105.446 96.2716 105.061C98.986 104.676 100.828 103.811 101.797 102.464C102.767 101.118 103.251 99.2906 103.251 96.9823C103.058 92.7505 102.864 88.615 102.67 84.5756C102.476 80.5361 102.476 76.4006 102.67 72.1688C102.864 69.4758 102.379 67.6485 101.216 66.6867C100.246 65.5326 98.5013 64.7632 95.9808 64.3785C83.1843 61.8779 70.2909 59.9544 57.3006 58.6079C44.5041 57.0691 31.7077 55.6264 18.9112 54.2799C15.2274 53.7029 13.4824 54.9532 13.6763 58.0308C14.0641 63.6091 13.6763 69.1873 12.513 74.7656C11.5436 80.1514 10.865 85.6335 10.4772 91.2117ZM114.885 64.09C114.691 68.8988 115.369 73.2267 116.92 77.0738C118.665 80.9209 120.507 84.6717 122.446 88.3264C123.028 89.2882 123.609 89.7691 124.191 89.7691C127.487 89.3844 130.492 88.5188 133.207 87.1723C135.921 85.8259 138.442 84.0947 140.768 81.9788C142.707 80.2476 143.095 78.5164 141.932 76.7853C140.962 75.0541 140.09 73.3229 139.314 71.5917C138.539 69.8605 137.666 68.1294 136.697 66.3982C135.921 64.667 135.049 63.032 134.079 61.4932C133.11 60.1467 132.334 58.4155 131.753 56.2997C131.171 54.1838 129.62 53.6067 127.099 54.5685C121.671 56.492 117.599 59.6658 114.885 64.09ZM110.813 140.262C113.14 140.454 115.175 140.743 116.92 141.127C118.859 141.32 120.701 141.512 122.446 141.704C123.416 141.704 124.385 141.704 125.354 141.704C126.518 141.704 127.099 140.935 127.099 139.396C127.099 137.665 126.615 136.511 125.645 135.934C124.676 135.164 123.416 134.972 121.865 135.357C120.12 135.934 118.278 136.415 116.339 136.799C114.594 137.184 112.752 138.338 110.813 140.262ZM59.0456 141.416C55.9434 141.031 53.132 140.743 50.6115 140.55C48.2849 140.166 46.0552 139.877 43.9225 139.685C43.1469 139.492 42.2744 139.011 41.305 138.242C40.5295 137.473 39.9478 138.242 39.56 140.55C38.9784 143.051 40.2386 144.494 43.3408 144.878C45.8613 145.071 48.2849 144.878 50.6115 144.301C53.132 143.724 55.9434 142.762 59.0456 141.416ZM115.466 145.167C112.946 144.59 110.522 144.397 108.196 144.59C105.869 144.782 103.639 145.071 101.507 145.455C96.4655 146.225 93.5572 147.09 92.7817 148.052C92.0061 149.014 92.0061 151.995 92.7817 156.996C93.1694 158.92 93.7511 160.459 94.5266 161.613C95.4961 162.575 96.9502 163.152 98.8891 163.344C101.41 163.536 103.833 163.825 106.16 164.21C108.68 164.594 111.201 165.075 113.721 165.652C117.987 166.614 120.507 166.037 121.283 163.921C122.252 161.805 122.737 159.305 122.737 156.419C122.931 154.496 123.028 152.669 123.028 150.937C123.222 149.014 122.834 147.475 121.865 146.321C120.895 145.167 118.762 144.782 115.466 145.167ZM37.2334 175.751H34.9068C33.5496 181.714 32.6771 187.677 32.2893 193.64C32.0954 199.41 32.9679 205.181 34.9068 210.952H36.9426C36.9426 204.989 36.9426 199.122 36.9426 193.351C37.1365 187.388 37.2334 181.521 37.2334 175.751ZM104.124 223.358V230.283C103.93 236.631 107.032 239.035 113.43 237.496C116.145 236.727 118.762 236.246 121.283 236.054C123.997 235.669 126.712 235.284 129.426 234.899C135.63 234.13 139.993 233.264 142.513 232.303C145.034 231.341 146.391 229.514 146.585 226.821C146.973 224.128 146.682 219.8 145.712 213.837V212.971C145.131 208.932 142.707 206.912 138.442 206.912C134.37 206.912 130.492 207.489 126.809 208.643C123.319 209.797 119.635 210.855 115.757 211.817C113.624 212.202 111.492 212.683 109.359 213.26C107.226 213.837 105.578 214.799 104.415 216.145C103.445 217.492 103.348 219.896 104.124 223.358Z"/>
</mask>
<path d="M113.721 58.0308C117.017 55.915 119.926 54.0876 122.446 52.5488C125.161 50.8176 127.778 49.2788 130.299 47.9323C135.34 45.047 139.12 46.2011 141.641 51.3947C143.774 55.4341 145.519 59.4735 146.876 63.5129C148.233 67.5523 149.009 71.8803 149.202 76.4967C149.784 83.9985 146.682 89.0959 139.896 91.7888C125.742 97.367 116.727 92.462 112.849 77.0738C112.461 75.535 112.17 73.9961 111.976 72.4573C111.782 70.7261 110.91 68.995 109.359 67.2638C108.002 69.3797 107.226 71.4956 107.032 73.6114C107.032 75.535 107.032 77.5547 107.032 79.6705V101.31C107.42 105.734 105.384 108.043 100.925 108.235C93.5572 108.812 86.1896 109.389 78.8219 109.966C71.4542 110.351 64.0866 110.351 56.7189 109.966C53.0351 109.581 50.3207 110.062 48.5757 111.409C47.0246 112.755 46.1522 115.352 45.9583 119.199C45.9583 124.97 46.1522 129.105 46.5399 131.606C46.9277 133.914 48.2849 135.453 50.6115 136.222C52.9382 136.992 57.0098 137.857 62.8263 138.819C72.5206 140.358 82.021 140.55 91.3275 139.396C100.634 138.05 109.844 135.934 118.956 133.049C123.997 131.51 127.099 131.221 128.263 132.183C129.62 133.145 130.589 136.222 131.171 141.416C131.559 143.916 131.753 146.513 131.753 149.206C131.947 151.707 132.14 154.207 132.334 156.708C132.722 160.747 131.85 163.921 129.717 166.229C127.584 168.538 124.482 169.596 120.41 169.403C117.114 169.019 113.721 168.922 110.231 169.115C106.935 169.115 103.639 168.441 100.343 167.095C97.241 165.749 94.3327 165.749 91.6183 167.095C88.9039 168.249 86.0926 169.019 83.1843 169.403C77.7555 169.98 72.3267 170.557 66.8979 171.134C61.4691 171.519 55.9434 171.711 50.3207 171.711C47.4124 171.711 45.0858 172.385 43.3408 173.731C41.7897 174.885 40.9172 177.194 40.7234 180.656C40.5295 185.465 40.4325 190.37 40.4325 195.371C40.6264 200.18 40.7234 205.085 40.7234 210.086C40.7234 211.625 41.0142 212.586 41.5958 212.971C42.3714 213.356 43.4378 213.644 44.795 213.837C50.4176 214.799 56.0403 215.183 61.663 214.991C67.2857 214.606 72.9084 214.221 78.5311 213.837C84.5415 213.452 90.455 212.971 96.2716 212.394C102.282 211.625 108.293 210.278 114.303 208.355C118.181 206.816 121.961 205.085 125.645 203.161C129.523 201.238 133.498 199.699 137.569 198.545C142.61 197.006 146.197 196.717 148.33 197.679C150.657 198.449 152.595 201.334 154.146 206.335C155.116 209.413 155.891 212.586 156.473 215.856C157.055 218.934 157.539 222.108 157.927 225.378C158.315 228.263 157.152 230.956 154.437 233.457C151.723 235.765 148.427 237.208 144.549 237.785C139.896 238.362 135.243 238.939 130.589 239.516C125.936 239.901 121.283 240.285 116.63 240.67C113.527 241.055 110.619 241.728 107.905 242.69C105.19 243.651 103.251 246.056 102.088 249.903C101.313 252.404 99.6646 254.039 97.1441 254.808C94.8175 255.577 92.4908 255.866 90.1642 255.674C79.5005 253.75 68.6429 252.596 57.5914 252.211C46.5399 251.827 35.5854 251.442 24.7278 251.057C20.6562 250.865 17.8448 249.807 16.2938 247.883C14.7427 245.96 13.7732 243.363 13.3855 240.093C12.2222 230.86 11.1558 221.627 10.1864 212.394C9.21693 203.161 8.15056 193.928 6.98724 184.695C4.07896 160.074 3.69119 135.741 5.82393 111.697C7.95667 87.4608 10.3802 63.2244 13.0946 38.9879C13.6763 33.602 14.8396 28.4085 16.5846 23.4073C18.5234 18.4061 19.7837 13.3088 20.3654 8.11524C20.947 5.61464 22.595 4.36435 25.3094 4.36435C33.6465 4.5567 41.8867 4.74905 50.0299 4.9414C58.1731 5.13376 66.2193 6.28788 74.1686 8.40376C77.6586 9.17318 81.2455 9.75023 84.9293 10.1349C88.6131 10.5196 92.2969 10.9044 95.9808 11.2891C96.3686 11.4814 96.8533 11.5776 97.4349 11.5776C98.0166 11.5776 98.5013 11.5776 98.8891 11.5776C105.675 12.1546 110.522 13.1164 113.43 14.4629C116.533 15.8093 118.181 18.1176 118.375 21.3876C118.762 24.4652 118.084 29.1779 116.339 35.5255C115.369 38.9879 114.691 42.5464 114.303 46.2011C113.915 49.8558 113.721 53.7991 113.721 58.0308ZM24.1461 9.55788C28.6055 9.75023 32.9679 9.94258 37.2334 10.1349C41.4989 10.3273 45.7644 10.712 50.0299 11.2891C59.1425 12.6355 68.2551 14.1744 77.3678 15.9055C86.4804 17.4444 95.593 18.887 104.706 20.2335C106.257 20.4258 108.099 20.9067 110.231 21.6761C112.364 22.4455 113.624 21.6761 114.012 19.3679C114.4 17.8291 113.43 16.8673 111.104 16.4826C108.777 15.9055 106.741 15.5208 104.996 15.3285C92.5878 13.7896 80.276 12.0585 68.0612 10.1349C56.0403 8.01906 43.7286 6.76876 31.126 6.38405C29.9627 6.38405 28.7024 6.28787 27.3452 6.09552C26.1819 5.90317 25.1156 7.05729 24.1461 9.55788ZM55.8464 17.6367C55.8464 17.252 55.8464 16.8673 55.8464 16.4826C56.0403 15.9055 56.1373 15.5208 56.1373 15.3285C54.7801 15.1361 53.3259 14.9438 51.7748 14.7514C50.4176 14.5591 49.0604 14.3667 47.7032 14.1743C41.1111 13.4049 36.264 13.2126 33.1618 13.5973C30.2535 13.7896 28.1208 15.2323 26.7636 17.9252C25.6003 20.4258 24.1461 24.9461 22.4012 31.4861C20.4623 38.6032 19.3959 43.7005 19.202 46.7782C19.202 49.8558 20.6562 51.6832 23.5645 52.2603C26.6666 52.645 31.9985 52.5488 39.56 51.9717C46.346 51.3947 53.0351 50.8176 59.6272 50.2405C66.4132 49.4711 73.1023 50.0482 79.6944 51.9717C83.5721 53.3182 87.5467 54.4723 91.6183 55.4341C95.6899 56.3958 99.7615 57.3576 103.833 58.3194C105.966 58.7041 107.517 58.6079 108.486 58.0308C109.65 57.4538 110.328 56.0111 110.522 53.7029C110.91 49.8558 111.395 46.0088 111.976 42.1617C112.558 38.1223 113.334 34.2752 114.303 30.6205C114.885 27.9276 114.788 26.1964 114.012 25.427C113.237 24.6576 111.686 24.1767 109.359 23.9844C100.44 23.0226 91.5214 21.9647 82.6027 20.8105C73.6839 19.6564 64.7652 18.5985 55.8464 17.6367ZM144.549 71.0147C144.355 66.5905 143.483 62.8397 141.932 59.762C140.381 56.6844 138.733 53.7991 136.988 51.1061C136.212 49.7597 135.146 49.5673 133.788 50.5291C133.207 50.9138 132.916 51.3947 132.916 51.9717C133.11 52.5488 133.304 53.0297 133.498 53.4144C134.661 56.2997 136.115 59.185 137.86 62.0702C139.799 64.7632 142.029 67.7447 144.549 71.0147ZM84.9293 58.3194C80.276 56.7805 75.6228 55.4341 70.9695 54.2799C66.5101 52.9335 61.7599 53.1258 56.7189 54.857C61.3722 55.4341 66.0254 56.0111 70.6787 56.5882C75.5258 57.1653 80.276 57.7423 84.9293 58.3194ZM10.4772 91.2117C10.2833 97.1747 9.79859 103.138 9.02304 109.101C8.2475 114.871 7.76279 120.738 7.5689 126.701C7.18113 144.782 7.76279 162.767 9.31387 180.656C11.0588 198.352 13.1916 216.049 15.7121 233.745C16.4876 238.362 16.9724 241.536 17.1662 243.267C17.554 245.19 18.7173 246.248 20.6562 246.441C22.595 246.633 26.1819 246.633 31.4168 246.441C32.3863 246.248 33.2588 246.152 34.0343 246.152C34.8098 246.344 35.5854 246.537 36.3609 246.729C45.0858 247.691 53.8106 248.268 62.5355 248.46C71.4542 248.845 80.373 249.807 89.2917 251.346C96.2716 252.5 99.8585 249.614 100.052 242.69C100.052 239.997 100.052 237.4 100.052 234.899C100.246 232.206 100.44 229.514 100.634 226.821C101.022 222.204 100.052 219.415 97.7257 218.453C95.593 217.299 92.8786 216.914 89.5826 217.299C81.8271 218.069 74.1686 218.453 66.6071 218.453C59.0456 218.261 51.3871 217.972 43.6316 217.588C39.3662 217.203 36.167 216.241 34.0343 214.702C32.0954 212.971 30.8352 209.99 30.2535 205.758C29.0902 197.871 28.8963 190.177 29.6719 182.676C30.2535 178.829 30.7382 176.136 31.126 174.597C31.5138 173.058 32.4832 172 34.0343 171.423C35.7793 170.654 38.5906 169.98 42.4683 169.403C49.0604 168.249 55.6526 167.672 62.2447 167.672C68.8368 167.48 75.4289 166.614 82.021 165.075C83.1843 164.691 84.3476 164.498 85.5109 164.498C86.8681 164.306 87.6437 163.536 87.8376 162.19C88.6131 159.497 89.0009 156.804 89.0009 154.111C89.0009 151.418 88.5162 148.821 87.5467 146.321C86.7712 144.397 85.2201 143.628 82.8935 144.013C80.7607 144.205 78.7249 144.301 76.7861 144.301C71.1634 144.494 65.5407 145.359 59.918 146.898C54.2954 148.437 48.5757 149.11 42.7592 148.918C37.3304 148.918 34.8098 146.225 35.1976 140.839C35.3915 136.607 35.7793 132.471 36.3609 128.432C37.1365 124.393 37.912 120.353 38.6876 116.314C39.657 111.697 41.4989 108.908 44.2133 107.946C46.9277 106.792 50.2238 106.311 54.1015 106.504C61.0814 106.696 68.0612 106.6 75.0411 106.215C82.021 105.831 89.0978 105.446 96.2716 105.061C98.986 104.676 100.828 103.811 101.797 102.464C102.767 101.118 103.251 99.2906 103.251 96.9823C103.058 92.7505 102.864 88.615 102.67 84.5756C102.476 80.5361 102.476 76.4006 102.67 72.1688C102.864 69.4758 102.379 67.6485 101.216 66.6867C100.246 65.5326 98.5013 64.7632 95.9808 64.3785C83.1843 61.8779 70.2909 59.9544 57.3006 58.6079C44.5041 57.0691 31.7077 55.6264 18.9112 54.2799C15.2274 53.7029 13.4824 54.9532 13.6763 58.0308C14.0641 63.6091 13.6763 69.1873 12.513 74.7656C11.5436 80.1514 10.865 85.6335 10.4772 91.2117ZM114.885 64.09C114.691 68.8988 115.369 73.2267 116.92 77.0738C118.665 80.9209 120.507 84.6717 122.446 88.3264C123.028 89.2882 123.609 89.7691 124.191 89.7691C127.487 89.3844 130.492 88.5188 133.207 87.1723C135.921 85.8259 138.442 84.0947 140.768 81.9788C142.707 80.2476 143.095 78.5164 141.932 76.7853C140.962 75.0541 140.09 73.3229 139.314 71.5917C138.539 69.8605 137.666 68.1294 136.697 66.3982C135.921 64.667 135.049 63.032 134.079 61.4932C133.11 60.1467 132.334 58.4155 131.753 56.2997C131.171 54.1838 129.62 53.6067 127.099 54.5685C121.671 56.492 117.599 59.6658 114.885 64.09ZM110.813 140.262C113.14 140.454 115.175 140.743 116.92 141.127C118.859 141.32 120.701 141.512 122.446 141.704C123.416 141.704 124.385 141.704 125.354 141.704C126.518 141.704 127.099 140.935 127.099 139.396C127.099 137.665 126.615 136.511 125.645 135.934C124.676 135.164 123.416 134.972 121.865 135.357C120.12 135.934 118.278 136.415 116.339 136.799C114.594 137.184 112.752 138.338 110.813 140.262ZM59.0456 141.416C55.9434 141.031 53.132 140.743 50.6115 140.55C48.2849 140.166 46.0552 139.877 43.9225 139.685C43.1469 139.492 42.2744 139.011 41.305 138.242C40.5295 137.473 39.9478 138.242 39.56 140.55C38.9784 143.051 40.2386 144.494 43.3408 144.878C45.8613 145.071 48.2849 144.878 50.6115 144.301C53.132 143.724 55.9434 142.762 59.0456 141.416ZM115.466 145.167C112.946 144.59 110.522 144.397 108.196 144.59C105.869 144.782 103.639 145.071 101.507 145.455C96.4655 146.225 93.5572 147.09 92.7817 148.052C92.0061 149.014 92.0061 151.995 92.7817 156.996C93.1694 158.92 93.7511 160.459 94.5266 161.613C95.4961 162.575 96.9502 163.152 98.8891 163.344C101.41 163.536 103.833 163.825 106.16 164.21C108.68 164.594 111.201 165.075 113.721 165.652C117.987 166.614 120.507 166.037 121.283 163.921C122.252 161.805 122.737 159.305 122.737 156.419C122.931 154.496 123.028 152.669 123.028 150.937C123.222 149.014 122.834 147.475 121.865 146.321C120.895 145.167 118.762 144.782 115.466 145.167ZM37.2334 175.751H34.9068C33.5496 181.714 32.6771 187.677 32.2893 193.64C32.0954 199.41 32.9679 205.181 34.9068 210.952H36.9426C36.9426 204.989 36.9426 199.122 36.9426 193.351C37.1365 187.388 37.2334 181.521 37.2334 175.751ZM104.124 223.358V230.283C103.93 236.631 107.032 239.035 113.43 237.496C116.145 236.727 118.762 236.246 121.283 236.054C123.997 235.669 126.712 235.284 129.426 234.899C135.63 234.13 139.993 233.264 142.513 232.303C145.034 231.341 146.391 229.514 146.585 226.821C146.973 224.128 146.682 219.8 145.712 213.837V212.971C145.131 208.932 142.707 206.912 138.442 206.912C134.37 206.912 130.492 207.489 126.809 208.643C123.319 209.797 119.635 210.855 115.757 211.817C113.624 212.202 111.492 212.683 109.359 213.26C107.226 213.837 105.578 214.799 104.415 216.145C103.445 217.492 103.348 219.896 104.124 223.358Z" fill="#300043"/>
<path d="M113.721 58.0308C117.017 55.915 119.926 54.0876 122.446 52.5488C125.161 50.8176 127.778 49.2788 130.299 47.9323C135.34 45.047 139.12 46.2011 141.641 51.3947C143.774 55.4341 145.519 59.4735 146.876 63.5129C148.233 67.5523 149.009 71.8803 149.202 76.4967C149.784 83.9985 146.682 89.0959 139.896 91.7888C125.742 97.367 116.727 92.462 112.849 77.0738C112.461 75.535 112.17 73.9961 111.976 72.4573C111.782 70.7261 110.91 68.995 109.359 67.2638C108.002 69.3797 107.226 71.4956 107.032 73.6114C107.032 75.535 107.032 77.5547 107.032 79.6705V101.31C107.42 105.734 105.384 108.043 100.925 108.235C93.5572 108.812 86.1896 109.389 78.8219 109.966C71.4542 110.351 64.0866 110.351 56.7189 109.966C53.0351 109.581 50.3207 110.062 48.5757 111.409C47.0246 112.755 46.1522 115.352 45.9583 119.199C45.9583 124.97 46.1522 129.105 46.5399 131.606C46.9277 133.914 48.2849 135.453 50.6115 136.222C52.9382 136.992 57.0098 137.857 62.8263 138.819C72.5206 140.358 82.021 140.55 91.3275 139.396C100.634 138.05 109.844 135.934 118.956 133.049C123.997 131.51 127.099 131.221 128.263 132.183C129.62 133.145 130.589 136.222 131.171 141.416C131.559 143.916 131.753 146.513 131.753 149.206C131.947 151.707 132.14 154.207 132.334 156.708C132.722 160.747 131.85 163.921 129.717 166.229C127.584 168.538 124.482 169.596 120.41 169.403C117.114 169.019 113.721 168.922 110.231 169.115C106.935 169.115 103.639 168.441 100.343 167.095C97.241 165.749 94.3327 165.749 91.6183 167.095C88.9039 168.249 86.0926 169.019 83.1843 169.403C77.7555 169.98 72.3267 170.557 66.8979 171.134C61.4691 171.519 55.9434 171.711 50.3207 171.711C47.4124 171.711 45.0858 172.385 43.3408 173.731C41.7897 174.885 40.9172 177.194 40.7234 180.656C40.5295 185.465 40.4325 190.37 40.4325 195.371C40.6264 200.18 40.7234 205.085 40.7234 210.086C40.7234 211.625 41.0142 212.586 41.5958 212.971C42.3714 213.356 43.4378 213.644 44.795 213.837C50.4176 214.799 56.0403 215.183 61.663 214.991C67.2857 214.606 72.9084 214.221 78.5311 213.837C84.5415 213.452 90.455 212.971 96.2716 212.394C102.282 211.625 108.293 210.278 114.303 208.355C118.181 206.816 121.961 205.085 125.645 203.161C129.523 201.238 133.498 199.699 137.569 198.545C142.61 197.006 146.197 196.717 148.33 197.679C150.657 198.449 152.595 201.334 154.146 206.335C155.116 209.413 155.891 212.586 156.473 215.856C157.055 218.934 157.539 222.108 157.927 225.378C158.315 228.263 157.152 230.956 154.437 233.457C151.723 235.765 148.427 237.208 144.549 237.785C139.896 238.362 135.243 238.939 130.589 239.516C125.936 239.901 121.283 240.285 116.63 240.67C113.527 241.055 110.619 241.728 107.905 242.69C105.19 243.651 103.251 246.056 102.088 249.903C101.313 252.404 99.6646 254.039 97.1441 254.808C94.8175 255.577 92.4908 255.866 90.1642 255.674C79.5005 253.75 68.6429 252.596 57.5914 252.211C46.5399 251.827 35.5854 251.442 24.7278 251.057C20.6562 250.865 17.8448 249.807 16.2938 247.883C14.7427 245.96 13.7732 243.363 13.3855 240.093C12.2222 230.86 11.1558 221.627 10.1864 212.394C9.21693 203.161 8.15056 193.928 6.98724 184.695C4.07896 160.074 3.69119 135.741 5.82393 111.697C7.95667 87.4608 10.3802 63.2244 13.0946 38.9879C13.6763 33.602 14.8396 28.4085 16.5846 23.4073C18.5234 18.4061 19.7837 13.3088 20.3654 8.11524C20.947 5.61464 22.595 4.36435 25.3094 4.36435C33.6465 4.5567 41.8867 4.74905 50.0299 4.9414C58.1731 5.13376 66.2193 6.28788 74.1686 8.40376C77.6586 9.17318 81.2455 9.75023 84.9293 10.1349C88.6131 10.5196 92.2969 10.9044 95.9808 11.2891C96.3686 11.4814 96.8533 11.5776 97.4349 11.5776C98.0166 11.5776 98.5013 11.5776 98.8891 11.5776C105.675 12.1546 110.522 13.1164 113.43 14.4629C116.533 15.8093 118.181 18.1176 118.375 21.3876C118.762 24.4652 118.084 29.1779 116.339 35.5255C115.369 38.9879 114.691 42.5464 114.303 46.2011C113.915 49.8558 113.721 53.7991 113.721 58.0308ZM24.1461 9.55788C28.6055 9.75023 32.9679 9.94258 37.2334 10.1349C41.4989 10.3273 45.7644 10.712 50.0299 11.2891C59.1425 12.6355 68.2551 14.1744 77.3678 15.9055C86.4804 17.4444 95.593 18.887 104.706 20.2335C106.257 20.4258 108.099 20.9067 110.231 21.6761C112.364 22.4455 113.624 21.6761 114.012 19.3679C114.4 17.8291 113.43 16.8673 111.104 16.4826C108.777 15.9055 106.741 15.5208 104.996 15.3285C92.5878 13.7896 80.276 12.0585 68.0612 10.1349C56.0403 8.01906 43.7286 6.76876 31.126 6.38405C29.9627 6.38405 28.7024 6.28787 27.3452 6.09552C26.1819 5.90317 25.1156 7.05729 24.1461 9.55788ZM55.8464 17.6367C55.8464 17.252 55.8464 16.8673 55.8464 16.4826C56.0403 15.9055 56.1373 15.5208 56.1373 15.3285C54.7801 15.1361 53.3259 14.9438 51.7748 14.7514C50.4176 14.5591 49.0604 14.3667 47.7032 14.1743C41.1111 13.4049 36.264 13.2126 33.1618 13.5973C30.2535 13.7896 28.1208 15.2323 26.7636 17.9252C25.6003 20.4258 24.1461 24.9461 22.4012 31.4861C20.4623 38.6032 19.3959 43.7005 19.202 46.7782C19.202 49.8558 20.6562 51.6832 23.5645 52.2603C26.6666 52.645 31.9985 52.5488 39.56 51.9717C46.346 51.3947 53.0351 50.8176 59.6272 50.2405C66.4132 49.4711 73.1023 50.0482 79.6944 51.9717C83.5721 53.3182 87.5467 54.4723 91.6183 55.4341C95.6899 56.3958 99.7615 57.3576 103.833 58.3194C105.966 58.7041 107.517 58.6079 108.486 58.0308C109.65 57.4538 110.328 56.0111 110.522 53.7029C110.91 49.8558 111.395 46.0088 111.976 42.1617C112.558 38.1223 113.334 34.2752 114.303 30.6205C114.885 27.9276 114.788 26.1964 114.012 25.427C113.237 24.6576 111.686 24.1767 109.359 23.9844C100.44 23.0226 91.5214 21.9647 82.6027 20.8105C73.6839 19.6564 64.7652 18.5985 55.8464 17.6367ZM144.549 71.0147C144.355 66.5905 143.483 62.8397 141.932 59.762C140.381 56.6844 138.733 53.7991 136.988 51.1061C136.212 49.7597 135.146 49.5673 133.788 50.5291C133.207 50.9138 132.916 51.3947 132.916 51.9717C133.11 52.5488 133.304 53.0297 133.498 53.4144C134.661 56.2997 136.115 59.185 137.86 62.0702C139.799 64.7632 142.029 67.7447 144.549 71.0147ZM84.9293 58.3194C80.276 56.7805 75.6228 55.4341 70.9695 54.2799C66.5101 52.9335 61.7599 53.1258 56.7189 54.857C61.3722 55.4341 66.0254 56.0111 70.6787 56.5882C75.5258 57.1653 80.276 57.7423 84.9293 58.3194ZM10.4772 91.2117C10.2833 97.1747 9.79859 103.138 9.02304 109.101C8.2475 114.871 7.76279 120.738 7.5689 126.701C7.18113 144.782 7.76279 162.767 9.31387 180.656C11.0588 198.352 13.1916 216.049 15.7121 233.745C16.4876 238.362 16.9724 241.536 17.1662 243.267C17.554 245.19 18.7173 246.248 20.6562 246.441C22.595 246.633 26.1819 246.633 31.4168 246.441C32.3863 246.248 33.2588 246.152 34.0343 246.152C34.8098 246.344 35.5854 246.537 36.3609 246.729C45.0858 247.691 53.8106 248.268 62.5355 248.46C71.4542 248.845 80.373 249.807 89.2917 251.346C96.2716 252.5 99.8585 249.614 100.052 242.69C100.052 239.997 100.052 237.4 100.052 234.899C100.246 232.206 100.44 229.514 100.634 226.821C101.022 222.204 100.052 219.415 97.7257 218.453C95.593 217.299 92.8786 216.914 89.5826 217.299C81.8271 218.069 74.1686 218.453 66.6071 218.453C59.0456 218.261 51.3871 217.972 43.6316 217.588C39.3662 217.203 36.167 216.241 34.0343 214.702C32.0954 212.971 30.8352 209.99 30.2535 205.758C29.0902 197.871 28.8963 190.177 29.6719 182.676C30.2535 178.829 30.7382 176.136 31.126 174.597C31.5138 173.058 32.4832 172 34.0343 171.423C35.7793 170.654 38.5906 169.98 42.4683 169.403C49.0604 168.249 55.6526 167.672 62.2447 167.672C68.8368 167.48 75.4289 166.614 82.021 165.075C83.1843 164.691 84.3476 164.498 85.5109 164.498C86.8681 164.306 87.6437 163.536 87.8376 162.19C88.6131 159.497 89.0009 156.804 89.0009 154.111C89.0009 151.418 88.5162 148.821 87.5467 146.321C86.7712 144.397 85.2201 143.628 82.8935 144.013C80.7607 144.205 78.7249 144.301 76.7861 144.301C71.1634 144.494 65.5407 145.359 59.918 146.898C54.2954 148.437 48.5757 149.11 42.7592 148.918C37.3304 148.918 34.8098 146.225 35.1976 140.839C35.3915 136.607 35.7793 132.471 36.3609 128.432C37.1365 124.393 37.912 120.353 38.6876 116.314C39.657 111.697 41.4989 108.908 44.2133 107.946C46.9277 106.792 50.2238 106.311 54.1015 106.504C61.0814 106.696 68.0612 106.6 75.0411 106.215C82.021 105.831 89.0978 105.446 96.2716 105.061C98.986 104.676 100.828 103.811 101.797 102.464C102.767 101.118 103.251 99.2906 103.251 96.9823C103.058 92.7505 102.864 88.615 102.67 84.5756C102.476 80.5361 102.476 76.4006 102.67 72.1688C102.864 69.4758 102.379 67.6485 101.216 66.6867C100.246 65.5326 98.5013 64.7632 95.9808 64.3785C83.1843 61.8779 70.2909 59.9544 57.3006 58.6079C44.5041 57.0691 31.7077 55.6264 18.9112 54.2799C15.2274 53.7029 13.4824 54.9532 13.6763 58.0308C14.0641 63.6091 13.6763 69.1873 12.513 74.7656C11.5436 80.1514 10.865 85.6335 10.4772 91.2117ZM114.885 64.09C114.691 68.8988 115.369 73.2267 116.92 77.0738C118.665 80.9209 120.507 84.6717 122.446 88.3264C123.028 89.2882 123.609 89.7691 124.191 89.7691C127.487 89.3844 130.492 88.5188 133.207 87.1723C135.921 85.8259 138.442 84.0947 140.768 81.9788C142.707 80.2476 143.095 78.5164 141.932 76.7853C140.962 75.0541 140.09 73.3229 139.314 71.5917C138.539 69.8605 137.666 68.1294 136.697 66.3982C135.921 64.667 135.049 63.032 134.079 61.4932C133.11 60.1467 132.334 58.4155 131.753 56.2997C131.171 54.1838 129.62 53.6067 127.099 54.5685C121.671 56.492 117.599 59.6658 114.885 64.09ZM110.813 140.262C113.14 140.454 115.175 140.743 116.92 141.127C118.859 141.32 120.701 141.512 122.446 141.704C123.416 141.704 124.385 141.704 125.354 141.704C126.518 141.704 127.099 140.935 127.099 139.396C127.099 137.665 126.615 136.511 125.645 135.934C124.676 135.164 123.416 134.972 121.865 135.357C120.12 135.934 118.278 136.415 116.339 136.799C114.594 137.184 112.752 138.338 110.813 140.262ZM59.0456 141.416C55.9434 141.031 53.132 140.743 50.6115 140.55C48.2849 140.166 46.0552 139.877 43.9225 139.685C43.1469 139.492 42.2744 139.011 41.305 138.242C40.5295 137.473 39.9478 138.242 39.56 140.55C38.9784 143.051 40.2386 144.494 43.3408 144.878C45.8613 145.071 48.2849 144.878 50.6115 144.301C53.132 143.724 55.9434 142.762 59.0456 141.416ZM115.466 145.167C112.946 144.59 110.522 144.397 108.196 144.59C105.869 144.782 103.639 145.071 101.507 145.455C96.4655 146.225 93.5572 147.09 92.7817 148.052C92.0061 149.014 92.0061 151.995 92.7817 156.996C93.1694 158.92 93.7511 160.459 94.5266 161.613C95.4961 162.575 96.9502 163.152 98.8891 163.344C101.41 163.536 103.833 163.825 106.16 164.21C108.68 164.594 111.201 165.075 113.721 165.652C117.987 166.614 120.507 166.037 121.283 163.921C122.252 161.805 122.737 159.305 122.737 156.419C122.931 154.496 123.028 152.669 123.028 150.937C123.222 149.014 122.834 147.475 121.865 146.321C120.895 145.167 118.762 144.782 115.466 145.167ZM37.2334 175.751H34.9068C33.5496 181.714 32.6771 187.677 32.2893 193.64C32.0954 199.41 32.9679 205.181 34.9068 210.952H36.9426C36.9426 204.989 36.9426 199.122 36.9426 193.351C37.1365 187.388 37.2334 181.521 37.2334 175.751ZM104.124 223.358V230.283C103.93 236.631 107.032 239.035 113.43 237.496C116.145 236.727 118.762 236.246 121.283 236.054C123.997 235.669 126.712 235.284 129.426 234.899C135.63 234.13 139.993 233.264 142.513 232.303C145.034 231.341 146.391 229.514 146.585 226.821C146.973 224.128 146.682 219.8 145.712 213.837V212.971C145.131 208.932 142.707 206.912 138.442 206.912C134.37 206.912 130.492 207.489 126.809 208.643C123.319 209.797 119.635 210.855 115.757 211.817C113.624 212.202 111.492 212.683 109.359 213.26C107.226 213.837 105.578 214.799 104.415 216.145C103.445 217.492 103.348 219.896 104.124 223.358Z" stroke="#A30015" stroke-width="8" stroke-linejoin="round" mask="url(#path-2-outside-1_104_7)"/>
</svg>
