<svg width="113" height="233" viewBox="0 0 113 233" fill="none" xmlns="http://www.w3.org/2000/svg">
<rect x="20" y="6" width="71" height="195" fill="#2C0043"/>
<path d="M69.3329 8.4667H46.6609L36.9713 9.59559L31.0446 15.6164L29.6335 23.5186V170.651L31.0446 178.553L37.1594 184.48L46.6609 185.609H69.3329L80.3396 184.292L77.9877 174.132L69.1447 175.637H47.2254L41.0165 174.696L39.6994 169.052V24.4594L40.6402 19.2853L47.2254 18.2504H68.7684L78.4581 19.8497L80.3396 9.78374L69.3329 8.4667ZM70.5558 0C76.8902 0 82.6287 0.940745 87.7715 2.82223C92.9142 4.70372 97.273 7.27509 100.848 10.5363C104.485 13.7976 107.276 17.6233 109.22 22.0134C111.165 26.3408 112.137 30.9505 112.137 35.8424V196.898C112.137 201.79 111.165 206.431 109.22 210.821C107.276 215.148 104.485 218.943 100.848 222.204C97.273 225.465 92.9142 228.036 87.7715 229.918C82.6287 231.799 76.8902 232.74 70.5558 232.74H41.5809C35.2466 232.74 29.508 231.799 24.3653 229.918C19.2225 228.036 14.8324 225.465 11.1949 222.204C7.62003 218.943 4.86051 215.148 2.91631 210.821C0.972103 206.431 0 201.79 0 196.898V35.8424C0 30.9505 0.972103 26.3408 2.91631 22.0134C4.86051 17.6233 7.62003 13.7976 11.1949 10.5363C14.8324 7.27509 19.2225 4.70372 24.3653 2.82223C29.508 0.940745 35.2466 0 41.5809 0H70.5558Z" fill="#A30015"/>
</svg>
