<svg width="214" height="258" viewBox="0 0 214 258" fill="none" xmlns="http://www.w3.org/2000/svg">
<path d="M21.496 219.898V15.1921L83.2089 17.4499L99.766 35.5122L101.271 56.5849C105.787 68.8773 115.119 93.7631 116.323 94.9673C117.527 96.1714 120.337 108.514 121.591 114.535L135.891 112.277V38.5226L141.159 15.1921H178.036L197.603 27.2337L187.067 70.1316C185.311 106.507 182.853 180.462 187.067 185.279C191.282 190.095 188.823 220.902 187.067 235.703L134.385 240.218L102.024 168.722L82.4563 134.855L77.9407 227.424L21.496 219.898Z" fill="#F6D6A3"/>
<path d="M72.2892 240.918C69.0842 241.035 65.2738 241.051 60.858 240.967C56.4334 240.639 51.4991 240.085 46.0552 239.305C39.2003 238.333 33.5649 237.804 29.1491 237.72C24.9248 237.385 21.8067 237.132 19.7947 236.96C11.9559 236.512 8.02598 233.235 8.00504 227.129C8.63814 222.465 9.33158 216.699 10.0853 209.833C11.0306 202.715 12.0406 194.617 13.1153 185.54C13.8337 177.698 14.4398 163.997 14.9336 144.437C15.4275 124.878 16.114 99.5714 16.9932 68.5176C17.0696 65.0951 16.9839 59.9686 16.7361 53.1381C16.6797 46.0564 16.6234 38.9747 16.567 31.893C16.5107 24.8113 16.5207 19.5592 16.5971 16.1366C16.7942 10.5113 19.0962 7.61876 23.5031 7.45888C26.7081 7.3426 30.7189 7.31922 35.5353 7.38875C40.3517 7.45829 46.1741 7.61345 53.0025 7.85425C59.4214 7.86564 65.039 7.90609 69.8554 7.97562C74.6718 8.04516 78.6914 8.26573 81.9141 8.63734C85.3372 9.00168 90.117 13.5915 96.2536 22.4068C102.19 31.2293 105.207 36.9822 105.304 39.6656C105.428 43.0809 104.479 44.5809 102.459 44.1657C101.858 44.1875 99.1385 41.1107 94.3012 34.9352C89.6642 28.7525 86.5267 25.2023 84.8888 24.2847L76.9535 37.763C73.9254 42.7582 72.5088 47.9392 72.7035 53.306C72.8186 56.4773 73.8616 60.3477 75.8326 64.9173C77.8036 69.4869 78.8554 73.6013 78.9882 77.2605C79.1563 81.8954 78.0136 86.3337 75.56 90.5753C73.0975 94.5729 69.9073 97.8641 65.9895 100.449C62.0718 103.034 58.0096 104.402 53.8029 104.555C48.5948 104.744 44.2482 103.802 40.7632 101.731C37.2693 99.4146 34.5502 96.3378 32.6057 92.5C31.4537 88.3893 30.1971 84.1602 28.8359 79.8128C27.4747 75.4654 26.1179 71.2399 24.7656 67.1364C24.8131 73.9742 24.8224 82.5232 24.7935 92.7835C24.7557 102.8 24.6842 114.649 24.5788 128.332C39.3788 132.681 48.3021 140.906 51.3487 153.009C51.9529 158.605 52.4613 164.327 52.8741 170.175C53.4871 176.015 54.1001 181.855 54.7132 187.695C56.8113 201.298 63.8847 211.056 75.9334 216.97C76.2809 215.492 76.4237 213.899 76.3618 212.191C76.4913 210.232 76.6208 208.274 76.7503 206.315C77.2916 193.593 77.4207 183.329 77.1375 175.523C77.0458 167.466 76.8422 161.855 76.5268 158.691C76.0023 155.29 75.4822 152.011 74.9665 148.855C74.6423 145.447 74.2223 142.164 73.7067 139.007C72.8756 132.687 72.3849 127.453 72.2344 123.306C71.8715 113.304 75.0999 108.301 81.9194 108.298C84.9418 108.677 87.599 110.046 89.891 112.406C92.1741 114.521 93.3776 117.287 93.5015 120.702C93.59 123.142 93.3177 126.693 92.6846 131.357C92.0515 136.021 90.8485 141.561 89.0754 147.976C85.7208 160.556 84.0628 170.142 84.1015 176.736C84.1457 177.956 84.1031 179.545 83.9736 181.504C84.0355 183.211 84.1063 185.163 84.186 187.359C84.2656 189.554 84.3497 191.872 84.4382 194.311C84.727 196.743 84.9245 199.423 85.0308 202.35C85.4346 207.954 85.6161 212.955 85.575 217.353C85.7344 221.744 85.7669 225.407 85.6728 228.342C85.364 236.414 80.9028 240.606 72.2892 240.918ZM199.606 250.589C198.204 250.64 195.578 250.124 191.727 249.043C187.877 247.961 184.946 247.335 182.934 247.163C181.323 246.978 179.415 246.925 177.212 247.005C175 246.841 172.591 246.806 169.987 246.9C167.984 246.973 165.885 247.171 163.691 247.495C161.688 247.568 159.484 247.648 157.08 247.735C154.276 247.837 151.576 248.057 148.981 248.395C146.577 248.482 144.273 248.566 142.07 248.646C140.067 248.719 138.164 248.788 136.361 248.853C134.549 248.674 132.842 248.614 131.24 248.672C127.024 248.581 124.005 245.515 122.181 239.475L118.919 224.204C117.785 220.581 116.314 215.994 114.508 210.441C112.903 204.881 110.665 198.489 107.795 191.265C107.35 190.06 106.274 188.023 104.565 185.154C102.847 182.04 100.502 178.217 97.5298 173.684C92.4125 165.32 89.8273 160.407 89.7742 158.943C89.886 156.496 90.6989 154.024 92.2129 151.526C93.9272 149.022 95.6858 147.736 97.4886 147.671C98.6905 147.627 100.411 148.054 102.65 148.949L117.985 190.163C123.097 203.901 127.88 214.108 132.334 220.786C136.788 227.464 140.422 230.874 143.236 231.016L157.999 231.58C148.978 220.671 144.233 208.752 143.764 195.823C143.304 183.137 145.941 172.905 151.676 165.124L165.581 150.33C170.995 144.76 173.543 137.584 173.224 128.802C173.1 125.386 172.362 121.627 171.01 117.524C169.858 113.413 167.883 108.721 165.084 103.449C159.695 93.141 156.864 84.2058 156.59 76.6435C155.846 56.152 167.484 45.2263 191.505 43.8663C191.451 42.4026 191.481 40.4474 191.593 38.0007C191.704 35.554 191.899 32.6157 192.175 29.1859L188.269 29.3277C182.861 29.5239 175.705 28.5621 166.803 26.4424C161.751 25.4044 157.409 24.5849 153.777 23.9838C150.345 23.3755 147.523 22.9894 145.31 22.8254L144.409 22.8581C142.606 22.9235 141.557 24.4271 141.263 27.369C140.342 46.211 139.867 60.7622 139.838 71.0224C140.001 81.0315 140.104 86.6459 140.148 87.8656C140.378 94.2082 140.918 100.784 141.766 107.593C142.615 114.401 143.455 120.966 144.286 127.287C145.651 137.252 146.252 145.536 146.09 152.137C146.076 157.267 143.565 159.923 138.557 160.104C132.147 160.337 129.286 153.357 129.975 139.164C126.413 140.515 123.13 141.245 120.125 141.354C114.717 141.55 109.939 139.769 105.791 136.011C101.834 132.002 99.9458 126.941 100.125 120.828C100.072 119.364 100.293 117.158 100.788 114.209C101.474 111.008 101.891 108.673 102.038 107.202C101.949 104.762 101.037 101.742 99.3021 98.1411C97.558 94.2961 96.624 90.666 96.5001 87.2508C96.2169 79.4445 98.5128 73.6209 103.388 69.78C99.7082 62.3412 97.9508 58.1303 98.1157 57.1473C98.0538 55.4397 98.7239 54.5604 100.126 54.5095C103.95 54.8593 109.537 62.3511 116.887 76.9847L130.583 106.166C131.369 94.6572 131.752 80.3537 131.734 63.2556C131.665 50.312 131.703 40.2956 131.847 33.2067C131.991 26.1177 132.041 21.9633 131.996 20.7436C132.243 10.9639 139.378 5.81977 153.4 5.31105C159.409 5.09303 166.643 5.44127 175.1 6.35577C183.549 7.02633 190.517 8.36125 196.005 10.3605L195.979 9.6287C196.91 7.64079 197.776 6.6323 198.577 6.60323C200.589 6.77451 202.302 9.7657 203.716 15.5768C204.206 18.0017 204.586 20.1863 204.857 22.1307C205.328 24.0677 205.49 25.7717 205.343 27.2426L202.883 133.588C202.707 145.319 202.96 160.577 203.641 179.361L204.172 193.997C204.508 203.267 204.714 211.687 204.788 219.257C204.853 226.582 204.787 233.058 204.59 238.683C204.272 246.511 202.611 250.48 199.606 250.589Z" fill="#320050"/>
</svg>
