<svg width="195" height="248" viewBox="0 0 195 248" fill="none" xmlns="http://www.w3.org/2000/svg">
<path d="M58.6569 1.16101H1.45959C2.71392 41.8012 5.07205 125.49 4.46998 135.123C3.71738 147.165 1.45959 245.002 97.0392 245.002C168.514 245.002 189.859 189.561 191.866 166.732V1.16101H138.432V159.959C138.934 165.979 132.526 193.825 97.0392 193.825C75.9665 193.825 57.1517 173.505 58.6569 159.959V1.16101Z" fill="#A30015" stroke="black"/>
<path d="M136.325 155.695V0.805286H144.582V155.695C144.582 167.287 139.995 177.2 130.82 185.436C121.646 193.672 110.636 197.79 97.7918 197.79C84.9475 197.79 73.9381 193.672 64.7636 185.436C55.5891 177.2 51.0019 167.287 51.0019 155.695V0.805286H59.2589V155.695C59.2589 164.999 63.0052 172.968 70.4977 179.602C78.0667 186.237 87.1647 189.554 97.7918 189.554C108.419 189.554 117.479 186.237 124.971 179.602C132.54 172.968 136.325 164.999 136.325 155.695ZM152.839 155.695V0.805286H161.096V155.695C161.096 163.626 159.414 171.214 156.05 178.458C152.686 185.627 148.175 191.842 142.518 197.104C136.86 202.365 130.132 206.56 122.334 209.686C114.535 212.737 106.355 214.262 97.7918 214.262C89.229 214.262 81.0484 212.737 73.25 209.686C65.4517 206.56 58.7238 202.365 53.0661 197.104C47.4085 191.842 42.8977 185.627 39.5338 178.458C36.1698 171.214 34.4878 163.626 34.4878 155.695V0.805286H42.7448V155.695C42.7448 164.77 45.1914 173.197 50.0844 180.975C55.054 188.677 61.7437 194.778 70.1536 199.277C78.6401 203.776 87.8528 206.026 97.7918 206.026C107.731 206.026 116.905 203.776 125.315 199.277C133.802 194.778 140.491 188.677 145.385 180.975C150.354 173.197 152.839 164.77 152.839 155.695ZM169.353 155.695V0.805286H177.61V155.695C177.61 165.838 175.469 175.561 171.188 184.864C166.983 194.091 161.325 202.06 154.215 208.771C147.105 215.482 138.618 220.82 128.756 224.785C118.893 228.751 108.572 230.734 97.7918 230.734C87.0118 230.734 76.6905 228.751 66.8279 224.785C56.9653 220.82 48.4789 215.482 41.3687 208.771C34.2584 202.06 28.5626 194.091 24.2812 184.864C20.0762 175.561 17.9737 165.838 17.9737 155.695V0.805286H26.2307V155.695C26.2307 167.744 29.4418 178.916 35.864 189.211C42.2861 199.43 50.9637 207.551 61.8966 213.575C72.906 219.524 84.8711 222.498 97.7918 222.498C110.713 222.498 122.639 219.524 133.572 213.575C144.582 207.551 153.298 199.43 159.72 189.211C166.142 178.916 169.353 167.744 169.353 155.695ZM185.867 155.695V0.805286H194.124V155.695C194.124 172.167 189.804 187.457 181.165 201.565C172.526 215.596 160.79 226.73 145.958 234.966C131.202 243.126 115.147 247.205 97.7918 247.205C80.4367 247.205 64.3431 243.126 49.511 234.966C34.7554 226.73 23.0579 215.596 14.4186 201.565C5.77925 187.457 1.45959 172.167 1.45959 155.695V0.354004L9.71664 0.805286V155.695C9.71664 166.905 12.0485 177.658 16.7122 187.953C21.3759 198.248 27.6451 207.132 35.5199 214.605C43.3947 222.002 52.7603 227.912 63.6168 232.335C74.5498 236.758 85.9414 238.969 97.7918 238.969C109.642 238.969 120.996 236.758 131.852 232.335C142.785 227.912 152.189 222.002 160.064 214.605C167.939 207.132 174.208 198.248 178.871 187.953C183.535 177.658 185.867 166.905 185.867 155.695Z" fill="#2F0047"/>
</svg>
